<?xml version="1.0" encoding="utf-8"?>
<!-- Generator: Adobe Illustrator 23.1.1, SVG Export Plug-In . SVG Version: 6.00 Build 0)  -->
<svg version="1.1" id="Layer_1" xmlns="http://www.w3.org/2000/svg" xmlns:xlink="http://www.w3.org/1999/xlink" x="0px" y="0px"
	 viewBox="0 0 1366 768" style="enable-background:new 0 0 1366 768;" xml:space="preserve">
<style type="text/css">
	.st0{fill:url(#SVGID_1_);}
	.st1{fill:url(#SVGID_2_);}
	.st2{opacity:0.39;}
	.st3{fill:#AA7F61;}
	.st4{fill:#BC9662;}
	.st5{fill:#886D5B;}
	.st6{fill:#8F6652;}
	.st7{fill:#AA805A;}
	.st8{fill:#9A6F49;}
	.st9{fill:#B18154;}
	.st10{fill:#B88D6C;}
	.st11{fill:#AA8155;}
	.st12{fill:#C59E6E;}
	.st13{fill:#A5755A;}
	.st14{fill:#AB8055;}
	.st15{fill:#B5875E;}
	.st16{fill:#A77852;}
	.st17{fill:#EBEBEB;}
	.st18{fill:#E0E0E0;}
	.st19{fill:#D9D9D9;}
	.st20{opacity:0.41;fill:none;stroke:#CCCCCC;stroke-miterlimit:10;enable-background:new    ;}
	.st21{fill:#E79B00;}
	.st22{fill:url(#SVGID_3_);}
	.st23{fill:url(#SVGID_4_);}
	.st24{fill:url(#SVGID_5_);}
	.st25{fill:url(#SVGID_6_);}
	.st26{fill:url(#SVGID_7_);}
	.st27{fill:url(#SVGID_8_);}
	.st28{fill:url(#SVGID_9_);}
	.st29{fill:url(#SVGID_10_);}
	.st30{fill:#333366;}
	.st31{fill:#3F4080;}
	.st32{fill:#231F20;}
	.st33{fill:#8A6628;}
	.st34{fill:url(#SVGID_11_);}
	.st35{fill:#182E17;}
	.st36{fill:#E3E2E2;}
	.st37{fill:#056079;}
	.st38{opacity:0.47;fill:url(#SVGID_12_);enable-background:new    ;}
	.st39{fill:url(#SVGID_13_);}
	.st40{opacity:0.45;fill:url(#SVGID_14_);enable-background:new    ;}
	.st41{opacity:0.45;fill:url(#SVGID_15_);enable-background:new    ;}
	.st42{fill:#ABDFF0;}
	.st43{fill:#97C4D3;}
	.st44{fill:#896327;}
	.st45{fill:#523D18;}
	.st46{fill:url(#SVGID_16_);}
	.st47{fill:#1C2E17;}
	.st48{fill:#162013;}
	.st49{fill:#64471C;}
	.st50{fill:url(#SVGID_17_);}
	.st51{fill:url(#SVGID_18_);}
	.st52{fill:url(#SVGID_19_);}
	.st53{fill:#D2976B;}
	.st54{fill:url(#SVGID_20_);}
	.st55{fill:#721012;}
	.st56{fill:#681013;}
	.st57{fill:url(#SVGID_21_);}
</style>
<g>
	
		<linearGradient id="SVGID_1_" gradientUnits="userSpaceOnUse" x1="692.5894" y1="761.8194" x2="675.3782" y2="83.7012" gradientTransform="matrix(1 0 0 -1 0 768)">
		<stop  offset="0" style="stop-color:#B9E3FF"/>
		<stop  offset="0.9885" style="stop-color:#576978"/>
	</linearGradient>
	<rect class="st0" width="1366" height="768"/>
</g>
<g>
	
		<linearGradient id="SVGID_2_" gradientUnits="userSpaceOnUse" x1="679.9695" y1="244.8131" x2="686.0305" y2="-15.8131" gradientTransform="matrix(1 0 0 -1 0 768)">
		<stop  offset="0" style="stop-color:#6E4F34"/>
		<stop  offset="1" style="stop-color:#C49F70"/>
	</linearGradient>
	<rect y="539" class="st1" width="1366" height="229"/>
</g>
<g class="st2">
	<rect y="539" class="st3" width="428.4" height="57.25"/>
	<rect x="427.33" y="539" class="st4" width="483.27" height="57.25"/>
	<rect x="910.6" y="539" class="st5" width="455.4" height="57.25"/>
	<rect y="596.25" class="st6" width="200.04" height="57.25"/>
	<rect x="200.04" y="596.25" class="st7" width="483.27" height="57.25"/>
	<rect x="683.31" y="596.25" class="st8" width="483.27" height="57.25"/>
	<rect x="1166.58" y="596.25" class="st9" width="199.42" height="57.25"/>
	<rect y="653.5" class="st10" width="428.4" height="57.25"/>
	<rect x="427.33" y="653.5" class="st11" width="483.27" height="57.25"/>
	<rect x="910.6" y="653.5" class="st12" width="455.4" height="57.25"/>
	<rect x="186.23" y="710.75" class="st13" width="483.27" height="57.25"/>
	<rect y="710.75" class="st14" width="186.23" height="57.25"/>
	<rect x="669.5" y="710.75" class="st15" width="483.27" height="57.25"/>
	<rect x="1152.77" y="710.75" class="st16" width="213.23" height="57.25"/>
</g>
<rect x="946" y="127" class="st17" width="384" height="412"/>
<rect x="970" y="147.96" class="st18" width="168" height="390.06"/>
<rect x="1138" y="148.02" class="st19" width="168" height="390.06"/>
<line class="st20" x1="984" y1="180" x2="1119" y2="180"/>
<line class="st20" x1="984" y1="192.5" x2="1119" y2="192.5"/>
<line class="st20" x1="984" y1="205" x2="1119" y2="205"/>
<line class="st20" x1="984" y1="217.5" x2="1119" y2="217.5"/>
<line class="st20" x1="984" y1="230" x2="1119" y2="230"/>
<line class="st20" x1="984" y1="242.5" x2="1119" y2="242.5"/>
<line class="st20" x1="984" y1="255" x2="1119" y2="255"/>
<line class="st20" x1="984" y1="267.5" x2="1119" y2="267.5"/>
<line class="st20" x1="984" y1="280" x2="1119" y2="280"/>
<line class="st20" x1="984" y1="292.5" x2="1119" y2="292.5"/>
<line class="st20" x1="984" y1="305" x2="1119" y2="305"/>
<line class="st20" x1="984" y1="317.5" x2="1119" y2="317.5"/>
<line class="st20" x1="984" y1="330" x2="1119" y2="330"/>
<line class="st20" x1="984" y1="342.5" x2="1119" y2="342.5"/>
<line class="st20" x1="984" y1="355" x2="1119" y2="355"/>
<line class="st20" x1="984" y1="367.5" x2="1119" y2="367.5"/>
<line class="st20" x1="984" y1="380" x2="1119" y2="380"/>
<line class="st20" x1="984" y1="392.5" x2="1119" y2="392.5"/>
<line class="st20" x1="984" y1="405" x2="1119" y2="405"/>
<line class="st20" x1="984" y1="417.5" x2="1119" y2="417.5"/>
<line class="st20" x1="984" y1="430" x2="1119" y2="430"/>
<line class="st20" x1="984" y1="442.5" x2="1119" y2="442.5"/>
<line class="st20" x1="984" y1="455" x2="1119" y2="455"/>
<line class="st20" x1="984" y1="467.5" x2="1119" y2="467.5"/>
<line class="st20" x1="984" y1="480" x2="1119" y2="480"/>
<line class="st20" x1="984" y1="492.5" x2="1119" y2="492.5"/>
<line class="st20" x1="984" y1="505" x2="1119" y2="505"/>
<line class="st20" x1="984" y1="517.5" x2="1119" y2="517.5"/>
<line class="st20" x1="1155" y1="180" x2="1290" y2="180"/>
<line class="st20" x1="1155" y1="192.5" x2="1290" y2="192.5"/>
<line class="st20" x1="1155" y1="205" x2="1290" y2="205"/>
<line class="st20" x1="1155" y1="217.5" x2="1290" y2="217.5"/>
<line class="st20" x1="1155" y1="230" x2="1290" y2="230"/>
<line class="st20" x1="1155" y1="242.5" x2="1290" y2="242.5"/>
<line class="st20" x1="1155" y1="255" x2="1290" y2="255"/>
<line class="st20" x1="1155" y1="267.5" x2="1290" y2="267.5"/>
<line class="st20" x1="1155" y1="280" x2="1290" y2="280"/>
<line class="st20" x1="1155" y1="292.5" x2="1290" y2="292.5"/>
<line class="st20" x1="1155" y1="305" x2="1290" y2="305"/>
<line class="st20" x1="1155" y1="317.5" x2="1290" y2="317.5"/>
<line class="st20" x1="1155" y1="330" x2="1290" y2="330"/>
<line class="st20" x1="1155" y1="342.5" x2="1290" y2="342.5"/>
<line class="st20" x1="1155" y1="355" x2="1290" y2="355"/>
<line class="st20" x1="1155" y1="367.5" x2="1290" y2="367.5"/>
<line class="st20" x1="1155" y1="380" x2="1290" y2="380"/>
<line class="st20" x1="1155" y1="392.5" x2="1290" y2="392.5"/>
<line class="st20" x1="1155" y1="405" x2="1290" y2="405"/>
<line class="st20" x1="1155" y1="417.5" x2="1290" y2="417.5"/>
<line class="st20" x1="1155" y1="430" x2="1290" y2="430"/>
<line class="st20" x1="1155" y1="442.5" x2="1290" y2="442.5"/>
<line class="st20" x1="1155" y1="455" x2="1290" y2="455"/>
<line class="st20" x1="1155" y1="467.5" x2="1290" y2="467.5"/>
<line class="st20" x1="1155" y1="480" x2="1290" y2="480"/>
<line class="st20" x1="1155" y1="492.5" x2="1290" y2="492.5"/>
<line class="st20" x1="1155" y1="505" x2="1290" y2="505"/>
<line class="st20" x1="1155" y1="517.5" x2="1290" y2="517.5"/>
<circle class="st21" cx="1295" cy="324" r="5"/>
</svg>
